<mxfile host="Electron" agent="Mozilla/5.0 (Macintosh; Intel Mac OS X 10_15_7) AppleWebKit/537.36 (KHTML, like Gecko) draw.io/26.1.1 Chrome/132.0.6834.210 Electron/34.3.3 Safari/537.36" version="26.1.1">
  <diagram name="Page-1" id="Oi8bX6DlbFnigaaQneFw">
    <mxGraphModel dx="789" dy="512" grid="1" gridSize="10" guides="1" tooltips="1" connect="1" arrows="1" fold="1" page="1" pageScale="1" pageWidth="1600" pageHeight="900" math="1" shadow="0">
      <root>
        <mxCell id="0" />
        <mxCell id="1" parent="0" />
        <mxCell id="0aJdYBLg2AdZzgk3SdUu-4" style="edgeStyle=orthogonalEdgeStyle;rounded=0;orthogonalLoop=1;jettySize=auto;html=1;exitX=1;exitY=0;exitDx=0;exitDy=0;entryX=0;entryY=0.5;entryDx=0;entryDy=0;curved=1;" edge="1" parent="1" source="0aJdYBLg2AdZzgk3SdUu-1" target="0aJdYBLg2AdZzgk3SdUu-2">
          <mxGeometry relative="1" as="geometry" />
        </mxCell>
        <mxCell id="0aJdYBLg2AdZzgk3SdUu-6" value="$$\text{Remove}(n_4)$$" style="edgeLabel;html=1;align=center;verticalAlign=middle;resizable=0;points=[];labelBackgroundColor=none;" vertex="1" connectable="0" parent="0aJdYBLg2AdZzgk3SdUu-4">
          <mxGeometry x="0.101" y="-3" relative="1" as="geometry">
            <mxPoint x="-10" y="-15" as="offset" />
          </mxGeometry>
        </mxCell>
        <mxCell id="0aJdYBLg2AdZzgk3SdUu-1" value="$$\{n_1,n_2,n_3,n_4\}, v=1$$" style="rounded=1;whiteSpace=wrap;html=1;fillColor=#d5e8d4;strokeColor=#82b366;" vertex="1" parent="1">
          <mxGeometry x="330" y="310" width="150" height="60" as="geometry" />
        </mxCell>
        <mxCell id="0aJdYBLg2AdZzgk3SdUu-2" value="$$\{n_1,n_2,n_3\},v=2$$" style="rounded=1;whiteSpace=wrap;html=1;fillColor=#d5e8d4;strokeColor=#82b366;" vertex="1" parent="1">
          <mxGeometry x="610" y="260" width="150" height="60" as="geometry" />
        </mxCell>
        <mxCell id="0aJdYBLg2AdZzgk3SdUu-3" value="$$\{n_1,n_2,n_4\},v=2$$" style="rounded=1;whiteSpace=wrap;html=1;fillColor=#d5e8d4;strokeColor=#82b366;" vertex="1" parent="1">
          <mxGeometry x="610" y="360" width="150" height="60" as="geometry" />
        </mxCell>
        <mxCell id="0aJdYBLg2AdZzgk3SdUu-5" style="edgeStyle=orthogonalEdgeStyle;rounded=0;orthogonalLoop=1;jettySize=auto;html=1;exitX=1;exitY=1;exitDx=0;exitDy=0;entryX=-0.005;entryY=0.583;entryDx=0;entryDy=0;entryPerimeter=0;elbow=vertical;curved=1;" edge="1" parent="1" source="0aJdYBLg2AdZzgk3SdUu-1" target="0aJdYBLg2AdZzgk3SdUu-3">
          <mxGeometry relative="1" as="geometry" />
        </mxCell>
        <mxCell id="0aJdYBLg2AdZzgk3SdUu-7" value="$$\text{Remove}(n_3)$$" style="edgeLabel;html=1;align=center;verticalAlign=middle;resizable=0;points=[];labelBackgroundColor=none;" vertex="1" connectable="0" parent="0aJdYBLg2AdZzgk3SdUu-5">
          <mxGeometry x="0.381" y="-1" relative="1" as="geometry">
            <mxPoint x="-23" y="13" as="offset" />
          </mxGeometry>
        </mxCell>
      </root>
    </mxGraphModel>
  </diagram>
</mxfile>
